<?xml version="1.0" encoding="UTF-8"?>
<svg xmlns="http://www.w3.org/2000/svg" width="960" height="572" viewBox="0 0 960 572">
<style>
text { font-family: -apple-system, BlinkMacSystemFont, 'Segoe UI', sans-serif; }
.title { font-size: 22px; font-weight: 700; fill: #1f2933; }
.axis-label { font-size: 13px; font-weight: 600; fill: #334155; }
.tick { font-size: 11px; fill: #64748b; }
.legend { font-size: 12px; font-weight: 600; fill: #1f2933; }
</style>
<rect width="960" height="572" fill="#ffffff"/>
<text class="title" x="480.0" y="34" text-anchor="middle">cpu-highpower: temperatures</text>
<rect x="93.92" y="122" width="47.55" height="320" fill="#fef3c7" fill-opacity="0.55"/>
<rect x="141.42" y="122" width="59.49" height="320" fill="#dbeafe" fill-opacity="0.55"/>
<rect x="200.91" y="122" width="106.99" height="320" fill="#fef3c7" fill-opacity="0.55"/>
<rect x="306.16" y="122" width="376.19" height="320" fill="#f3e8ff" fill-opacity="0.55"/>
<rect x="682.35" y="122" width="3.96" height="320" fill="#fef3c7" fill-opacity="0.55"/>
<rect x="686.95" y="122" width="25.12" height="320" fill="#f3e8ff" fill-opacity="0.55"/>
<line x1="86" y1="442.00" x2="930" y2="442.00" stroke="#e2e8f0" stroke-width="1"/>
<text class="tick" x="76" y="446.00" text-anchor="end">0</text>
<line x1="86" y1="375.33" x2="930" y2="375.33" stroke="#e2e8f0" stroke-width="1"/>
<text class="tick" x="76" y="379.33" text-anchor="end">25</text>
<line x1="86" y1="308.67" x2="930" y2="308.67" stroke="#e2e8f0" stroke-width="1"/>
<text class="tick" x="76" y="312.67" text-anchor="end">50</text>
<line x1="86" y1="242.00" x2="930" y2="242.00" stroke="#e2e8f0" stroke-width="1"/>
<text class="tick" x="76" y="246.00" text-anchor="end">75</text>
<line x1="86" y1="175.33" x2="930" y2="175.33" stroke="#e2e8f0" stroke-width="1"/>
<text class="tick" x="76" y="179.33" text-anchor="end">100</text>
<line x1="86.00" y1="122" x2="86.00" y2="442" stroke="#e2e8f0" stroke-width="1"/>
<text class="tick" x="86.00" y="462" text-anchor="middle">0.0s</text>
<line x1="284.12" y1="122" x2="284.12" y2="442" stroke="#e2e8f0" stroke-width="1"/>
<text class="tick" x="284.12" y="462" text-anchor="middle">1m40s</text>
<line x1="482.24" y1="122" x2="482.24" y2="442" stroke="#e2e8f0" stroke-width="1"/>
<text class="tick" x="482.24" y="462" text-anchor="middle">3m20s</text>
<line x1="680.37" y1="122" x2="680.37" y2="442" stroke="#e2e8f0" stroke-width="1"/>
<text class="tick" x="680.37" y="462" text-anchor="middle">5m00s</text>
<line x1="878.49" y1="122" x2="878.49" y2="442" stroke="#e2e8f0" stroke-width="1"/>
<text class="tick" x="878.49" y="462" text-anchor="middle">6m40s</text>
<line x1="86" y1="122" x2="86" y2="442" stroke="#334155" stroke-width="1.2"/>
<line x1="86" y1="442" x2="930" y2="442" stroke="#334155" stroke-width="1.2"/>
<text class="axis-label" x="480.0" y="554" text-anchor="middle">elapsed seconds (mactop epoch)</text>
<text class="legend" x="86.00" y="472.00">#1 54s [title gen] prefill=549@23.3t/s gen=357@11.8t/s cache=0% stop | Generate a title for this conversation:</text>
<text class="legend" x="86.00" y="488.00">#2 4m03s [agent→write] prefill=10661@200.3t/s gen=1907@10.1t/s cache=0% tool_calls | create minesweeper. 1 html file. file n…</text>
<text class="legend" x="86.00" y="504.00">#3 15s [tool-result] prefill=12584 gen=94@7.2t/s cache=100% stop | Wrote file successfully.</text>
<text class="axis-label" x="22" y="282.0" text-anchor="middle" transform="rotate(-90 22 282.0)">temperature (°C)</text>
<polyline fill="none" stroke="#2563eb" stroke-width="2" stroke-linecap="round" stroke-linejoin="round" points="86.00,254.88 105.81,238.24 117.70,235.82 127.61,262.30 137.51,247.17 149.40,237.58 159.31,227.25 169.21,218.74 181.10,195.99 191.00,177.95 202.89,173.53 212.80,179.41 222.70,172.17 234.59,171.93 244.50,172.56 256.38,171.00 266.29,170.93 276.20,194.31 288.08,207.92 297.99,210.97 309.88,203.49 319.78,207.54 329.69,207.69 341.58,215.66 351.48,216.51 363.37,217.19 373.28,218.96 383.18,220.38 395.07,219.85 404.98,224.65 414.88,231.42 424.79,226.53 436.68,227.67 446.58,239.71 456.49,233.53 468.38,236.93 478.28,244.95 490.17,247.46 500.08,248.58 509.98,251.25 521.87,251.07 531.77,252.13 543.66,252.14 553.57,253.50 563.47,253.12 575.36,254.40 585.27,255.05 597.15,254.39 607.06,255.08 616.97,254.33 628.85,253.49 638.76,256.11 648.67,243.72 658.57,259.59 670.46,262.94 680.37,260.98 690.27,272.80 702.16,287.47 712.07,295.06 723.95,299.65 733.86,305.69"/>
<polyline fill="none" stroke="#dc2626" stroke-width="2" stroke-linecap="round" stroke-linejoin="round" points="86.00,254.88 105.81,238.24 117.70,235.82 127.61,372.45 137.51,247.17 149.40,237.58 159.31,227.25 169.21,218.74 181.10,224.78 191.00,217.52 202.89,293.88 212.80,292.46 222.70,292.67 234.59,208.54 244.50,291.43 256.38,290.66 266.29,291.46 276.20,194.31 288.08,297.51 297.99,332.80 309.88,203.49 319.78,207.54 329.69,207.69 341.58,350.43 351.48,350.87 363.37,304.99 373.28,356.22 383.18,306.25 395.07,219.85 404.98,224.65 414.88,313.90 424.79,226.53 436.68,227.67 446.58,362.58 456.49,233.53 468.38,236.93 478.28,321.79 490.17,309.48 500.08,323.31 509.98,324.94 521.87,325.57 531.77,326.19 543.66,327.08 553.57,319.83 563.47,326.93 575.36,318.05 585.27,327.71 597.15,327.30 607.06,328.01 616.97,327.24 628.85,320.45 638.76,326.87 648.67,243.72 658.57,369.76 670.46,329.59 680.37,328.75 690.27,327.79 702.16,330.28 712.07,327.12 723.95,332.58 733.86,333.53"/>
<polyline fill="none" stroke="#9333ea" stroke-width="2" stroke-linecap="round" stroke-linejoin="round" points="86.00,296.95 105.81,280.17 117.70,277.32 127.61,262.30 137.51,256.32 149.40,247.11 159.31,236.95 169.21,228.46 181.10,195.99 191.00,177.95 202.89,173.53 212.80,179.41 222.70,172.17 234.59,171.93 244.50,172.56 256.38,171.00 266.29,170.93 276.20,196.96 288.08,207.92 297.99,210.97 309.88,209.71 319.78,218.75 329.69,214.62 341.58,215.66 351.48,216.51 363.37,217.19 373.28,218.96 383.18,220.38 395.07,224.43 404.98,230.05 414.88,231.42 424.79,234.77 436.68,237.70 446.58,239.71 456.49,242.18 468.38,244.58 478.28,244.95 490.17,247.46 500.08,248.58 509.98,251.25 521.87,251.07 531.77,252.13 543.66,252.14 553.57,253.50 563.47,253.12 575.36,254.40 585.27,255.05 597.15,254.39 607.06,255.08 616.97,254.33 628.85,253.49 638.76,256.11 648.67,253.58 658.57,259.59 670.46,262.94 680.37,260.98 690.27,272.80 702.16,287.47 712.07,295.06 723.95,299.65 733.86,305.69"/>
<line x1="93.92" y1="122" x2="93.92" y2="442" stroke="#94a3b8" stroke-width="1" stroke-dasharray="4 3"/>
<line x1="93.92" y1="101.00" x2="93.92" y2="122.00" stroke="#94a3b8" stroke-width="1" stroke-dasharray="2 2"/>
<text class="tick" x="97.92" y="98.00" text-anchor="start">#1 54s [title gen]</text>
<line x1="200.91" y1="122" x2="200.91" y2="442" stroke="#94a3b8" stroke-width="1" stroke-dasharray="4 3"/>
<line x1="200.91" y1="117.00" x2="200.91" y2="122.00" stroke="#94a3b8" stroke-width="1" stroke-dasharray="2 2"/>
<text class="tick" x="204.91" y="114.00" text-anchor="start">#2 4m03s [agent→write]</text>
<line x1="682.35" y1="122" x2="682.35" y2="442" stroke="#94a3b8" stroke-width="1" stroke-dasharray="4 3"/>
<line x1="682.35" y1="101.00" x2="682.35" y2="122.00" stroke="#94a3b8" stroke-width="1" stroke-dasharray="2 2"/>
<text class="tick" x="686.35" y="98.00" text-anchor="start">#3 15s [tool-result]</text>
<rect x="742" y="124" width="170" height="64" rx="6" fill="#ffffff" fill-opacity="0.92" stroke="#cbd5e1"/>
<rect x="750" y="132" width="12" height="12" fill="#2563eb"/>
<text class="legend" x="774" y="142">SoC °C</text>
<rect x="750" y="150" width="12" height="12" fill="#dc2626"/>
<text class="legend" x="774" y="160">CPU °C</text>
<rect x="750" y="168" width="12" height="12" fill="#9333ea"/>
<text class="legend" x="774" y="178">GPU °C</text>
<rect x="266.0" y="557" width="14" height="11" fill="#fef3c7" fill-opacity="0.85" stroke="#cbd5e1"/>
<text class="tick" x="284.0" y="567" text-anchor="start">prefill (Metal residency build)</text>
<rect x="497.5" y="557" width="14" height="11" fill="#dbeafe" fill-opacity="0.85" stroke="#cbd5e1"/>
<text class="tick" x="515.5" y="567" text-anchor="start">THINKING gen</text>
<rect x="605.5" y="557" width="14" height="11" fill="#f3e8ff" fill-opacity="0.85" stroke="#cbd5e1"/>
<text class="tick" x="623.5" y="567" text-anchor="start">TOOLS gen</text>
</svg>
