<?xml version="1.0" encoding="UTF-8"?>
<svg xmlns="http://www.w3.org/2000/svg" width="960" height="572" viewBox="0 0 960 572">
<style>
text { font-family: -apple-system, BlinkMacSystemFont, 'Segoe UI', sans-serif; }
.title { font-size: 22px; font-weight: 700; fill: #1f2933; }
.axis-label { font-size: 13px; font-weight: 600; fill: #334155; }
.tick { font-size: 11px; fill: #64748b; }
.legend { font-size: 12px; font-weight: 600; fill: #1f2933; }
</style>
<rect width="960" height="572" fill="#ffffff"/>
<text class="title" x="480.0" y="34" text-anchor="middle">dyn-highpower: temperatures</text>
<rect x="94.21" y="122" width="49.28" height="320" fill="#fef3c7" fill-opacity="0.55"/>
<rect x="143.70" y="122" width="51.13" height="320" fill="#dbeafe" fill-opacity="0.55"/>
<rect x="194.84" y="122" width="108.84" height="320" fill="#fef3c7" fill-opacity="0.55"/>
<rect x="304.50" y="122" width="432.47" height="320" fill="#f3e8ff" fill-opacity="0.55"/>
<rect x="736.97" y="122" width="4.11" height="320" fill="#fef3c7" fill-opacity="0.55"/>
<rect x="741.44" y="122" width="24.28" height="320" fill="#f3e8ff" fill-opacity="0.55"/>
<line x1="86" y1="442.00" x2="930" y2="442.00" stroke="#e2e8f0" stroke-width="1"/>
<text class="tick" x="76" y="446.00" text-anchor="end">0</text>
<line x1="86" y1="375.33" x2="930" y2="375.33" stroke="#e2e8f0" stroke-width="1"/>
<text class="tick" x="76" y="379.33" text-anchor="end">25</text>
<line x1="86" y1="308.67" x2="930" y2="308.67" stroke="#e2e8f0" stroke-width="1"/>
<text class="tick" x="76" y="312.67" text-anchor="end">50</text>
<line x1="86" y1="242.00" x2="930" y2="242.00" stroke="#e2e8f0" stroke-width="1"/>
<text class="tick" x="76" y="246.00" text-anchor="end">75</text>
<line x1="86" y1="175.33" x2="930" y2="175.33" stroke="#e2e8f0" stroke-width="1"/>
<text class="tick" x="76" y="179.33" text-anchor="end">100</text>
<line x1="86.00" y1="122" x2="86.00" y2="442" stroke="#e2e8f0" stroke-width="1"/>
<text class="tick" x="86.00" y="462" text-anchor="middle">0.0s</text>
<line x1="291.35" y1="122" x2="291.35" y2="442" stroke="#e2e8f0" stroke-width="1"/>
<text class="tick" x="291.35" y="462" text-anchor="middle">1m40s</text>
<line x1="496.71" y1="122" x2="496.71" y2="442" stroke="#e2e8f0" stroke-width="1"/>
<text class="tick" x="496.71" y="462" text-anchor="middle">3m20s</text>
<line x1="702.06" y1="122" x2="702.06" y2="442" stroke="#e2e8f0" stroke-width="1"/>
<text class="tick" x="702.06" y="462" text-anchor="middle">5m00s</text>
<line x1="907.41" y1="122" x2="907.41" y2="442" stroke="#e2e8f0" stroke-width="1"/>
<text class="tick" x="907.41" y="462" text-anchor="middle">6m40s</text>
<line x1="86" y1="122" x2="86" y2="442" stroke="#334155" stroke-width="1.2"/>
<line x1="86" y1="442" x2="930" y2="442" stroke="#334155" stroke-width="1.2"/>
<text class="axis-label" x="480.0" y="554" text-anchor="middle">elapsed seconds (mactop epoch)</text>
<text class="legend" x="86.00" y="472.00">#1 49s [title gen] prefill=552@23.2t/s gen=311@12.2t/s cache=0% stop | Generate a title for this conversation:</text>
<text class="legend" x="86.00" y="488.00">#2 4m24s [agent→write] prefill=10664@201.7t/s gen=2302@10.9t/s cache=0% tool_calls | create minesweeper. 1 html file. file n…</text>
<text class="legend" x="86.00" y="504.00">#3 14s [tool-result] prefill=12982 gen=95@8.1t/s cache=100% stop | Wrote file successfully.</text>
<text class="axis-label" x="22" y="282.0" text-anchor="middle" transform="rotate(-90 22 282.0)">temperature (°C)</text>
<polyline fill="none" stroke="#2563eb" stroke-width="2" stroke-linecap="round" stroke-linejoin="round" points="86.00,237.05 106.54,232.11 116.80,240.40 129.12,266.14 139.39,260.57 149.66,259.75 161.98,253.56 172.25,251.95 182.52,202.66 194.84,211.10 205.10,197.35 217.43,196.27 227.69,189.12 237.96,182.41 250.28,186.19 260.55,206.02 272.87,203.28 283.14,237.05 295.46,239.32 305.73,242.51 316.00,243.45 328.32,243.37 338.58,243.69 350.91,241.65 361.17,240.31 371.44,239.90 383.76,237.57 394.03,238.50 406.35,235.49 416.62,237.02 426.89,238.83 439.21,240.12 449.47,237.02 461.80,239.45 472.06,240.55 484.38,238.61 494.65,240.76 504.92,241.22 517.24,240.94 527.51,241.53 539.83,240.46 550.10,238.61 560.36,240.00 572.69,240.33 582.95,239.44 595.27,240.14 605.54,240.60 615.81,242.21 628.13,241.25 638.40,241.77 650.72,241.53 660.99,243.72 671.26,244.58 683.58,242.81 693.84,247.27 706.17,247.56 716.43,227.67 726.70,255.30 739.02,254.46 749.29,354.49 761.61,329.95 771.88,326.70 784.20,332.27"/>
<polyline fill="none" stroke="#dc2626" stroke-width="2" stroke-linecap="round" stroke-linejoin="round" points="86.00,237.05 106.54,232.11 116.80,240.40 129.12,312.52 139.39,266.83 149.66,311.07 161.98,355.76 172.25,257.42 182.52,305.14 194.84,302.31 205.10,302.00 217.43,234.39 227.69,234.90 237.96,235.71 250.28,297.48 260.55,298.86 272.87,230.39 283.14,302.88 295.46,305.36 305.73,253.00 316.00,254.03 328.32,325.66 338.58,327.15 350.91,284.21 361.17,249.94 371.44,331.13 383.76,306.57 394.03,306.34 406.35,248.74 416.62,250.39 426.89,306.13 439.21,305.83 449.47,252.30 461.80,252.30 472.06,307.06 484.38,306.70 494.65,352.20 504.92,306.88 517.24,306.70 527.51,254.51 539.83,252.60 550.10,306.03 560.36,305.99 572.69,253.10 582.95,253.53 595.27,306.19 605.54,306.53 615.81,254.69 628.13,254.92 638.40,307.34 650.72,307.22 660.99,256.15 671.26,255.92 683.58,307.70 693.84,327.92 706.17,271.44 716.43,227.67 726.70,331.52 739.02,309.49 749.29,354.49 761.61,329.95 771.88,326.70 784.20,332.27"/>
<polyline fill="none" stroke="#9333ea" stroke-width="2" stroke-linecap="round" stroke-linejoin="round" points="86.00,287.07 106.54,276.89 116.80,275.91 129.12,266.14 139.39,260.57 149.66,259.75 161.98,253.56 172.25,251.95 182.52,202.66 194.84,211.10 205.10,197.35 217.43,196.27 227.69,189.12 237.96,182.41 250.28,186.19 260.55,206.02 272.87,203.28 283.14,237.05 295.46,239.32 305.73,242.51 316.00,243.45 328.32,243.37 338.58,243.69 350.91,241.65 361.17,240.31 371.44,239.90 383.76,237.57 394.03,238.50 406.35,235.49 416.62,237.02 426.89,238.83 439.21,240.12 449.47,237.02 461.80,239.45 472.06,240.55 484.38,238.61 494.65,240.76 504.92,241.22 517.24,240.94 527.51,241.53 539.83,240.46 550.10,238.61 560.36,240.00 572.69,240.33 582.95,239.44 595.27,240.14 605.54,240.60 615.81,242.21 628.13,241.25 638.40,241.77 650.72,241.53 660.99,243.72 671.26,244.58 683.58,242.81 693.84,247.27 706.17,247.56 716.43,259.51 726.70,255.30 739.02,254.46 749.29,437.90 761.61,437.90 771.88,437.90 784.20,437.90"/>
<line x1="94.21" y1="122" x2="94.21" y2="442" stroke="#94a3b8" stroke-width="1" stroke-dasharray="4 3"/>
<line x1="94.21" y1="101.00" x2="94.21" y2="122.00" stroke="#94a3b8" stroke-width="1" stroke-dasharray="2 2"/>
<text class="tick" x="98.21" y="98.00" text-anchor="start">#1 49s [title gen]</text>
<line x1="194.84" y1="122" x2="194.84" y2="442" stroke="#94a3b8" stroke-width="1" stroke-dasharray="4 3"/>
<line x1="194.84" y1="117.00" x2="194.84" y2="122.00" stroke="#94a3b8" stroke-width="1" stroke-dasharray="2 2"/>
<text class="tick" x="198.84" y="114.00" text-anchor="start">#2 4m24s [agent→write]</text>
<line x1="736.97" y1="122" x2="736.97" y2="442" stroke="#94a3b8" stroke-width="1" stroke-dasharray="4 3"/>
<line x1="736.97" y1="101.00" x2="736.97" y2="122.00" stroke="#94a3b8" stroke-width="1" stroke-dasharray="2 2"/>
<text class="tick" x="740.97" y="98.00" text-anchor="start">#3 14s [tool-result]</text>
<rect x="742" y="124" width="170" height="64" rx="6" fill="#ffffff" fill-opacity="0.92" stroke="#cbd5e1"/>
<rect x="750" y="132" width="12" height="12" fill="#2563eb"/>
<text class="legend" x="774" y="142">SoC °C</text>
<rect x="750" y="150" width="12" height="12" fill="#dc2626"/>
<text class="legend" x="774" y="160">CPU °C</text>
<rect x="750" y="168" width="12" height="12" fill="#9333ea"/>
<text class="legend" x="774" y="178">GPU °C</text>
<rect x="266.0" y="557" width="14" height="11" fill="#fef3c7" fill-opacity="0.85" stroke="#cbd5e1"/>
<text class="tick" x="284.0" y="567" text-anchor="start">prefill (Metal residency build)</text>
<rect x="497.5" y="557" width="14" height="11" fill="#dbeafe" fill-opacity="0.85" stroke="#cbd5e1"/>
<text class="tick" x="515.5" y="567" text-anchor="start">THINKING gen</text>
<rect x="605.5" y="557" width="14" height="11" fill="#f3e8ff" fill-opacity="0.85" stroke="#cbd5e1"/>
<text class="tick" x="623.5" y="567" text-anchor="start">TOOLS gen</text>
</svg>
