<?xml version="1.0" encoding="UTF-8"?>
<svg xmlns="http://www.w3.org/2000/svg" width="960" height="540" viewBox="0 0 960 540">
<style>
text { font-family: -apple-system, BlinkMacSystemFont, 'Segoe UI', sans-serif; }
.title { font-size: 22px; font-weight: 700; fill: #1f2933; }
.axis-label { font-size: 13px; font-weight: 600; fill: #334155; }
.tick { font-size: 11px; fill: #64748b; }
.legend { font-size: 12px; font-weight: 600; fill: #1f2933; }
</style>
<rect width="960" height="540" fill="#ffffff"/>
<text class="title" x="480.0" y="34" text-anchor="middle">chat: CPU and load (iostat 30s)</text>
<rect x="90.38" y="90" width="23.20" height="352" fill="#fef3c7" fill-opacity="0.55"/>
<rect x="113.72" y="90" width="162.72" height="352" fill="#dbeafe" fill-opacity="0.55"/>
<rect x="276.43" y="90" width="404.51" height="352" fill="#dcfce7" fill-opacity="0.55"/>
<rect x="680.94" y="90" width="33.27" height="352" fill="#fed7aa" fill-opacity="0.55"/>
<line x1="86" y1="442.00" x2="874" y2="442.00" stroke="#e2e8f0" stroke-width="1"/>
<text class="tick" x="76" y="446.00" text-anchor="end">0</text>
<line x1="86" y1="368.67" x2="874" y2="368.67" stroke="#e2e8f0" stroke-width="1"/>
<text class="tick" x="76" y="372.67" text-anchor="end">25</text>
<line x1="86" y1="295.33" x2="874" y2="295.33" stroke="#e2e8f0" stroke-width="1"/>
<text class="tick" x="76" y="299.33" text-anchor="end">50</text>
<line x1="86" y1="222.00" x2="874" y2="222.00" stroke="#e2e8f0" stroke-width="1"/>
<text class="tick" x="76" y="226.00" text-anchor="end">75</text>
<line x1="86" y1="148.67" x2="874" y2="148.67" stroke="#e2e8f0" stroke-width="1"/>
<text class="tick" x="76" y="152.67" text-anchor="end">100</text>
<text class="tick" x="884" y="446.00" text-anchor="start">0</text>
<text class="tick" x="884" y="375.60" text-anchor="start">1</text>
<text class="tick" x="884" y="305.20" text-anchor="start">2</text>
<text class="tick" x="884" y="234.80" text-anchor="start">3</text>
<text class="tick" x="884" y="164.40" text-anchor="start">4</text>
<text class="tick" x="884" y="94.00" text-anchor="start">5</text>
<line x1="86.00" y1="90" x2="86.00" y2="442" stroke="#e2e8f0" stroke-width="1"/>
<text class="tick" x="86.00" y="462" text-anchor="middle">0.0s</text>
<line x1="304.89" y1="90" x2="304.89" y2="442" stroke="#e2e8f0" stroke-width="1"/>
<text class="tick" x="304.89" y="462" text-anchor="middle">8m20s</text>
<line x1="523.78" y1="90" x2="523.78" y2="442" stroke="#e2e8f0" stroke-width="1"/>
<text class="tick" x="523.78" y="462" text-anchor="middle">16m40s</text>
<line x1="742.67" y1="90" x2="742.67" y2="442" stroke="#e2e8f0" stroke-width="1"/>
<text class="tick" x="742.67" y="462" text-anchor="middle">25m00s</text>
<line x1="86" y1="90" x2="86" y2="442" stroke="#334155" stroke-width="1.2"/>
<line x1="86" y1="442" x2="874" y2="442" stroke="#334155" stroke-width="1.2"/>
<line x1="874" y1="90" x2="874" y2="442" stroke="#334155" stroke-width="1.2"/>
<text class="axis-label" x="480.0" y="522" text-anchor="middle">elapsed seconds (approx. aligned to ds4-server epoch)</text>
<text class="legend" x="86.00" y="472.00">#1 23m45s prefill=54s gen=8714@6.7t/s stop</text>
<text class="axis-label" x="22" y="266.0" text-anchor="middle" transform="rotate(-90 22 266.0)">CPU %</text>
<text class="axis-label" x="938" y="266.0" text-anchor="middle" transform="rotate(90 938 266.0)">load avg</text>
<polyline fill="none" stroke="#2563eb" stroke-width="2" stroke-linecap="round" stroke-linejoin="round" points="86.00,430.27 99.13,439.07 112.27,439.07 125.40,436.13 138.53,427.33 151.67,427.33 164.80,421.47 177.93,412.67 191.07,412.67 204.20,415.60 217.33,415.60 230.47,412.67 243.60,418.53 256.73,418.53 269.87,412.67 283.00,415.60 296.13,427.33 309.27,421.47 322.40,418.53 335.53,412.67 348.67,412.67 361.80,409.73 374.93,409.73 388.07,412.67 401.20,415.60 414.33,415.60 427.47,409.73 440.60,412.67 453.73,415.60 466.87,418.53 480.00,415.60 493.13,418.53 506.27,421.47 519.40,415.60 532.53,415.60 545.67,418.53 558.80,418.53 571.93,418.53 585.07,415.60 598.20,418.53 611.33,415.60 624.47,418.53 637.60,415.60 650.73,421.47 663.87,412.67 677.00,409.73 690.13,421.47 703.27,439.07 716.40,442.00 729.53,439.07 742.67,439.07 755.80,439.07 768.93,439.07 782.07,427.33 795.20,430.27 808.33,436.13 821.47,436.13 834.60,430.27 847.73,439.07 860.87,439.07 874.00,442.00"/>
<polyline fill="none" stroke="#dc2626" stroke-width="2" stroke-linecap="round" stroke-linejoin="round" points="86.00,433.20 99.13,436.13 112.27,436.13 125.40,427.33 138.53,430.27 151.67,430.27 164.80,430.27 177.93,430.27 191.07,430.27 204.20,430.27 217.33,430.27 230.47,430.27 243.60,430.27 256.73,430.27 269.87,427.33 283.00,430.27 296.13,430.27 309.27,427.33 322.40,430.27 335.53,430.27 348.67,430.27 361.80,430.27 374.93,427.33 388.07,430.27 401.20,430.27 414.33,430.27 427.47,430.27 440.60,430.27 453.73,430.27 466.87,430.27 480.00,430.27 493.13,430.27 506.27,430.27 519.40,430.27 532.53,430.27 545.67,430.27 558.80,430.27 571.93,430.27 585.07,430.27 598.20,430.27 611.33,430.27 624.47,430.27 637.60,430.27 650.73,430.27 663.87,421.47 677.00,421.47 690.13,424.40 703.27,427.33 716.40,433.20 729.53,436.13 742.67,439.07 755.80,439.07 768.93,439.07 782.07,430.27 795.20,427.33 808.33,436.13 821.47,433.20 834.60,433.20 847.73,439.07 860.87,439.07 874.00,439.07"/>
<polyline fill="none" stroke="#16a34a" stroke-width="2" stroke-linecap="round" stroke-linejoin="round" points="86.00,169.20 99.13,157.47 112.27,160.40 125.40,166.27 138.53,175.07 151.67,175.07 164.80,180.93 177.93,186.80 191.07,189.73 204.20,186.80 217.33,186.80 230.47,189.73 243.60,183.87 256.73,186.80 269.87,192.67 283.00,186.80 296.13,175.07 309.27,180.93 322.40,183.87 335.53,186.80 348.67,189.73 361.80,192.67 374.93,195.60 388.07,186.80 401.20,186.80 414.33,186.80 427.47,195.60 440.60,189.73 453.73,186.80 466.87,183.87 480.00,186.80 493.13,183.87 506.27,180.93 519.40,189.73 532.53,186.80 545.67,183.87 558.80,183.87 571.93,186.80 585.07,186.80 598.20,183.87 611.33,186.80 624.47,183.87 637.60,186.80 650.73,183.87 663.87,201.47 677.00,198.53 690.13,186.80 703.27,166.27 716.40,160.40 729.53,157.47 742.67,154.53 755.80,154.53 768.93,154.53 782.07,178.00 795.20,178.00 808.33,160.40 821.47,166.27 834.60,169.20 847.73,154.53 860.87,154.53 874.00,154.53"/>
<polyline fill="none" stroke="#9333ea" stroke-width="2" stroke-linecap="round" stroke-linejoin="round" stroke-dasharray="6 3" points="86.00,305.42 99.13,323.02 112.27,320.91 125.40,320.91 138.53,322.32 151.67,340.62 164.80,280.08 177.93,276.56 191.07,119.57 204.20,196.30 217.33,213.20 230.47,213.90 243.60,261.78 256.73,241.36 269.87,235.73 283.00,160.40 296.13,223.76 309.27,177.30 322.40,155.47 335.53,148.43 348.67,194.90 361.80,111.12 374.93,115.34 388.07,199.82 401.20,228.69 414.33,275.15 427.47,320.91 440.60,323.73 453.73,321.62 466.87,306.83 480.00,258.96 493.13,297.68 506.27,273.04 519.40,254.03 532.53,282.90 545.67,313.87 558.80,243.47 571.93,248.40 585.07,266.70 598.20,298.38 611.33,256.85 624.47,223.06 637.60,266.00 650.73,237.14 663.87,216.72 677.00,154.06 690.13,156.18 703.27,225.17 716.40,287.12 729.53,328.66 742.67,347.66 755.80,337.81 768.93,327.25 782.07,332.88 795.20,289.94 808.33,319.50 821.47,323.02 834.60,309.65 847.73,331.47 860.87,339.92 874.00,356.82"/>
<line x1="90.38" y1="90" x2="90.38" y2="442" stroke="#94a3b8" stroke-width="1" stroke-dasharray="4 3"/>
<line x1="90.38" y1="85.00" x2="90.38" y2="90.00" stroke="#94a3b8" stroke-width="1" stroke-dasharray="2 2"/>
<text class="tick" x="94.38" y="82.00" text-anchor="start">#1 23m45s</text>
<rect x="636" y="92" width="170" height="82" rx="6" fill="#ffffff" fill-opacity="0.92" stroke="#cbd5e1"/>
<rect x="644" y="100" width="12" height="12" fill="#2563eb"/>
<text class="legend" x="668" y="110">user %</text>
<rect x="644" y="118" width="12" height="12" fill="#dc2626"/>
<text class="legend" x="668" y="128">sys %</text>
<rect x="644" y="136" width="12" height="12" fill="#16a34a"/>
<text class="legend" x="668" y="146">idle %</text>
<line x1="644" y1="160" x2="662" y2="160" stroke="#9333ea" stroke-width="2" stroke-dasharray="6 3"/>
<text class="legend" x="668" y="164">load 1m</text>
<rect x="130.8" y="525" width="14" height="11" fill="#fef3c7" fill-opacity="0.85" stroke="#cbd5e1"/>
<text class="tick" x="148.8" y="535" text-anchor="start">prefill (Metal residency build)</text>
<rect x="362.2" y="525" width="14" height="11" fill="#dbeafe" fill-opacity="0.85" stroke="#cbd5e1"/>
<text class="tick" x="380.2" y="535" text-anchor="start">THINKING gen</text>
<rect x="470.2" y="525" width="14" height="11" fill="#dcfce7" fill-opacity="0.85" stroke="#cbd5e1"/>
<text class="tick" x="488.2" y="535" text-anchor="start">answer gen</text>
<rect x="565.2" y="525" width="14" height="11" fill="#fed7aa" fill-opacity="0.85" stroke="#cbd5e1"/>
<text class="tick" x="583.2" y="535" text-anchor="start">thinking-checkpoint canonicalization</text>
</svg>
